<svg xmlns="http://www.w3.org/2000/svg" viewBox="0 0 960 260" width="960" height="260" role="img" aria-label="Palimpsest">
  <defs>
    <radialGradient id="sheetB" gradientUnits="userSpaceOnUse" cx="470" cy="124" r="520" gradientTransform="translate(470,124) scale(1,0.46) translate(-470,-124)">
      <stop offset="0" stop-color="#F3E9D0"/>
      <stop offset="0.5" stop-color="#E9DCBD"/>
      <stop offset="0.85" stop-color="#DECBA0"/>
      <stop offset="1" stop-color="#D2BB90"/>
    </radialGradient>
    <radialGradient id="stainB" cx="0.5" cy="0.5" r="0.5">
      <stop offset="0" stop-color="#7D5C2E" stop-opacity="0.28"/>
      <stop offset="0.55" stop-color="#7D5C2E" stop-opacity="0.11"/>
      <stop offset="1" stop-color="#7D5C2E" stop-opacity="0"/>
    </radialGradient>
    <radialGradient id="haloB" gradientUnits="userSpaceOnUse" cx="292" cy="128" r="260" gradientTransform="translate(292,128) scale(1,0.36) translate(-292,-128)">
      <stop offset="0" stop-color="#F5ECD8" stop-opacity="0.9"/>
      <stop offset="0.6" stop-color="#F0E6CC" stop-opacity="0.45"/>
      <stop offset="1" stop-color="#F0E6CC" stop-opacity="0"/>
    </radialGradient>
    <radialGradient id="inkfadeB" gradientUnits="userSpaceOnUse" cx="295" cy="130" r="300" gradientTransform="translate(295,130) scale(1,0.5) translate(-295,-130)">
      <stop offset="0" stop-color="#585858"/>
      <stop offset="0.5" stop-color="#a4a4a4"/>
      <stop offset="0.8" stop-color="#e0e0e0"/>
      <stop offset="1" stop-color="#ffffff"/>
    </radialGradient>
    <mask id="inkmaskB"><rect x="0" y="0" width="960" height="260" fill="url(#inkfadeB)"/></mask>
    <mask id="punchB">
      <rect x="0" y="0" width="960" height="260" fill="#ffffff"/>
      <path d="M820,60 q21,-7 40,3 q-20,9 -40,-3 Z" fill="#000000" filter="url(#softenB)"/>
    </mask>

    <filter id="roughB" x="-4%" y="-8%" width="108%" height="116%">
      <feTurbulence type="fractalNoise" baseFrequency="0.012 0.026" numOctaves="3" seed="23" result="n"/>
      <feDisplacementMap in="SourceGraphic" in2="n" scale="5" xChannelSelector="R" yChannelSelector="G"/>
    </filter>
    <filter id="liftB" x="-6%" y="-14%" width="112%" height="130%">
      <feDropShadow dx="0" dy="5" stdDeviation="9" flood-color="#191106" flood-opacity="0.4"/>
    </filter>
    <filter id="grainB">
      <feTurbulence type="fractalNoise" baseFrequency="0.48 0.44" numOctaves="2" seed="31"/>
      <feColorMatrix type="matrix" values="0 0 0 0 0.38  0 0 0 0 0.29  0 0 0 0 0.15  1.1 0 0 0 -0.62"/>
      <feComposite operator="in" in2="SourceAlpha"/>
    </filter>
    <filter id="mottleB">
      <feTurbulence type="fractalNoise" baseFrequency="0.014 0.032" numOctaves="4" seed="6"/>
      <feColorMatrix type="matrix" values="0 0 0 0 0.45  0 0 0 0 0.34  0 0 0 0 0.18  0.85 0 0 0 -0.3"/>
      <feComposite operator="in" in2="SourceAlpha"/>
    </filter>
    <filter id="fiberB">
      <feTurbulence type="fractalNoise" baseFrequency="0.004 0.15" numOctaves="2" seed="3"/>
      <feColorMatrix type="matrix" values="0 0 0 0 0.99  0 0 0 0 0.96  0 0 0 0 0.88  1.2 0 0 0 -0.7"/>
      <feComposite operator="in" in2="SourceAlpha"/>
    </filter>
    <filter id="softenB"><feGaussianBlur stdDeviation="0.6"/></filter>
    <filter id="scriptB"><feGaussianBlur stdDeviation="0.7"/></filter>
    <filter id="soft2B"><feGaussianBlur stdDeviation="1.6"/></filter>
    <filter id="soft6B"><feGaussianBlur stdDeviation="6"/></filter>

    <clipPath id="clipB">
      <path transform="translate(480,130) scale(0.988,0.972) translate(-480,-130)" d="M 30,30 C 105,20 195,32 292,24 C 388,17 468,29 560,22 C 652,15 742,28 836,21 C 886,17 926,26 931,38 C 937,80 929,124 935,164 C 941,203 933,227 925,234 C 836,246 744,235 652,243 C 560,250 470,239 380,246 C 292,252 200,241 116,248 C 66,252 36,242 30,231 C 23,190 32,150 26,110 C 21,72 26,45 30,30 Z"/>
    </clipPath>

    <path id="vB1" d="M0,0 q4.5,26 0,52 t0,52 t0,52 t0,52" stroke-dasharray="8 4 14 5 6 3 16 5 9 4 12 4 7 3 18 5"/>
    <path id="vB2" d="M0,0 q-3.5,30 0,60 t0,60 t0,60" stroke-dasharray="11 4 6 3 15 5 8 4 13 4 7 3"/>
    <path id="vB3" d="M0,0 q5,24 0,48 t0,48 t0,48 t0,48" stroke-dasharray="9 3 13 4 7 3 16 5 10 4"/>
    <path id="vB4" d="M0,0 q-3,28 0,56 t0,56 t0,56" stroke-dasharray="7 3 12 4 9 4 14 5"/>
    <path id="HB1" d="M0,0 q45,-4.5 90,0 t90,0 t90,0 t90,0 t90,0 t90,0 t90,0 t90,0 t90,0" stroke-dasharray="18 6 10 5 26 7 14 5 30 8 9 5 22 6 12 5 27 7 16 6"/>
    <path id="HB2" d="M0,0 q40,4 80,0 t80,0 t80,0 t80,0 t80,0 t80,0 t80,0 t80,0 t80,0 t80,0" stroke-dasharray="12 5 24 7 9 5 28 7 15 5 20 6 11 5 25 7"/>
    <path id="HB3" d="M0,0 q50,-5 100,0 t100,0 t100,0 t100,0 t100,0 t100,0 t100,0 t100,0" stroke-dasharray="24 7 11 5 17 6 28 7 9 5 21 6 14 5"/>
    <path id="HB4" d="M0,0 q42,4.5 84,0 t84,0 t84,0 t84,0 t84,0 t84,0 t84,0 t84,0 t84,0" stroke-dasharray="15 5 27 7 10 5 22 6 13 5 19 6"/>
  </defs>

  <g mask="url(#punchB)">
    <g filter="url(#liftB)">
      <path d="M 30,30 C 105,20 195,32 292,24 C 388,17 468,29 560,22 C 652,15 742,28 836,21 C 886,17 926,26 931,38 C 937,80 929,124 935,164 C 941,203 933,227 925,234 C 836,246 744,235 652,243 C 560,250 470,239 380,246 C 292,252 200,241 116,248 C 66,252 36,242 30,231 C 23,190 32,150 26,110 C 21,72 26,45 30,30 Z" fill="url(#sheetB)" stroke="#B6975F" stroke-opacity="0.55" stroke-width="1.2" filter="url(#roughB)"/>
    </g>

    <g clip-path="url(#clipB)">
      <rect x="16" y="10" width="928" height="240" filter="url(#mottleB)" opacity="0.5"/>
      <rect x="16" y="10" width="928" height="240" filter="url(#grainB)" opacity="0.55"/>
      <rect x="16" y="10" width="928" height="240" filter="url(#fiberB)" opacity="0.4"/>
      <ellipse cx="150" cy="64" rx="86" ry="46" fill="url(#stainB)" opacity="0.9"/>
      <ellipse cx="760" cy="206" rx="96" ry="46" fill="url(#stainB)" opacity="0.7"/>
      <ellipse cx="592" cy="190" rx="74" ry="32" fill="none" stroke="#826132" stroke-width="5" stroke-opacity="0.16" filter="url(#soft2B)"/>
      <path d="M 30,30 C 105,20 195,32 292,24 C 388,17 468,29 560,22 C 652,15 742,28 836,21 C 886,17 926,26 931,38 C 937,80 929,124 935,164 C 941,203 933,227 925,234 C 836,246 744,235 652,243 C 560,250 470,239 380,246 C 292,252 200,241 116,248 C 66,252 36,242 30,231 C 23,190 32,150 26,110 C 21,72 26,45 30,30 Z" fill="none" stroke="#C6A66C" stroke-width="16" opacity="0.35" filter="url(#soft6B)"/>

      <g mask="url(#inkmaskB)">
        <g stroke="#9A7A46" stroke-width="1.6" fill="none" stroke-linecap="round" opacity="0.45" filter="url(#scriptB)" transform="rotate(-2 480 132)">
          <use href="#vB1" x="48" y="28"/><use href="#vB3" x="69" y="36" opacity="0.85"/><use href="#vB2" x="90" y="32"/>
          <use href="#vB1" x="111" y="44" opacity="0.9"/><use href="#vB4" x="132" y="30"/><use href="#vB2" x="153" y="40" opacity="0.8"/>
          <use href="#vB1" x="174" y="34"/><use href="#vB3" x="195" y="48" opacity="0.9"/><use href="#vB1" x="216" y="28" opacity="0.85"/>
          <use href="#vB3" x="237" y="36"/><use href="#vB2" x="258" y="32" opacity="0.9"/><use href="#vB1" x="279" y="44"/>
          <use href="#vB4" x="300" y="30" opacity="0.8"/><use href="#vB2" x="321" y="40"/><use href="#vB1" x="342" y="34" opacity="0.9"/>
          <use href="#vB3" x="363" y="48"/><use href="#vB1" x="384" y="28" opacity="0.85"/><use href="#vB3" x="405" y="36"/>
          <use href="#vB2" x="426" y="32" opacity="0.9"/><use href="#vB1" x="447" y="44"/><use href="#vB4" x="468" y="30" opacity="0.8"/>
          <use href="#vB2" x="489" y="40"/><use href="#vB1" x="510" y="34" opacity="0.9"/><use href="#vB3" x="531" y="48"/>
          <use href="#vB1" x="552" y="28" opacity="0.85"/><use href="#vB3" x="573" y="36"/><use href="#vB2" x="594" y="32" opacity="0.9"/>
          <use href="#vB1" x="615" y="44"/><use href="#vB4" x="636" y="30" opacity="0.8"/><use href="#vB2" x="657" y="40"/>
          <use href="#vB1" x="678" y="34" opacity="0.9"/><use href="#vB3" x="699" y="48"/><use href="#vB1" x="720" y="28" opacity="0.85"/>
          <use href="#vB3" x="741" y="36"/><use href="#vB2" x="762" y="32" opacity="0.9"/><use href="#vB1" x="783" y="44"/>
          <use href="#vB4" x="804" y="30" opacity="0.8"/><use href="#vB2" x="825" y="40"/><use href="#vB1" x="846" y="34" opacity="0.9"/>
          <use href="#vB3" x="867" y="48"/><use href="#vB1" x="888" y="28" opacity="0.85"/>
        </g>
        <g stroke="#CE5A3C" stroke-width="2.1" fill="none" stroke-linecap="round" opacity="0.5">
          <use href="#HB2" x="62" y="42"/>
          <use href="#HB1" x="60" y="60" opacity="0.85"/>
          <use href="#HB3" x="64" y="78" opacity="0.9"/>
          <use href="#HB1" x="61" y="96"/>
          <use href="#HB2" x="63" y="114" opacity="0.8"/>
          <use href="#HB4" x="60" y="132" opacity="0.9"/>
          <use href="#HB1" x="62" y="150"/>
          <use href="#HB2" x="60" y="168" opacity="0.85"/>
          <use href="#HB3" x="63" y="186"/>
          <use href="#HB1" x="61" y="204" opacity="0.9"/>
          <use href="#HB4" x="64" y="222" opacity="0.8"/>
        </g>
      </g>
    </g>

    <ellipse cx="292" cy="126" rx="245" ry="75" fill="url(#haloB)"/>
    <path transform="translate(67,136.4)" d="M13.58 -18.72Q13.89 -17.86 15.75 -17.08Q17.61 -16.31 20.58 -16.31Q23.31 -16.31 25.58 -17.33Q27.84 -18.35 29.48 -20.4Q31.12 -22.44 32.02 -25.45Q32.92 -28.46 32.92 -32.43Q32.92 -35.34 32.05 -37.73Q31.19 -40.11 29.67 -41.79Q28.15 -43.46 26.1 -44.39Q24.06 -45.32 21.7 -45.32Q20.4 -45.32 19.13 -44.98Q17.86 -44.64 16.83 -44.17Q15.81 -43.71 15.16 -43.18Q14.51 -42.66 14.38 -42.22Q14.26 -41.85 14.17 -40.36Q14.07 -38.87 13.98 -36.73Q13.89 -34.6 13.79 -32.02Q13.7 -29.45 13.67 -26.97Q13.64 -24.49 13.61 -22.29Q13.58 -20.09 13.58 -18.72ZM6.2 -18.6Q6.2 -26.16 6.08 -30.94Q5.95 -35.71 5.7 -38.41Q5.46 -41.11 5.08 -42.1Q4.71 -43.09 4.15 -43.09Q3.97 -43.09 3.41 -43.06Q2.85 -43.03 2.2 -43.03Q1.55 -43.03 1.05 -43.06Q0.56 -43.09 0.56 -43.21Q0.56 -43.4 0.56 -43.93Q0.56 -44.45 0.81 -44.58Q1.12 -44.64 2.17 -44.64Q3.22 -44.64 4.62 -44.58Q6.01 -44.52 7.5 -44.48Q8.99 -44.45 10.23 -44.45Q11.47 -44.45 12.25 -44.45Q13.02 -44.45 12.96 -44.58Q13.21 -44.58 14.17 -44.98Q15.13 -45.38 16.59 -45.88Q18.04 -46.38 19.93 -46.78Q21.82 -47.18 23.87 -47.18Q31.62 -47.18 36.02 -43.93Q40.42 -40.67 40.42 -34.97Q40.42 -30.13 38.5 -26.32Q36.58 -22.51 33.45 -19.81Q30.32 -17.11 26.38 -15.69Q22.44 -14.26 18.41 -14.26Q17.17 -14.26 15.72 -14.38Q14.26 -14.51 13.58 -14.82Q13.58 -13.27 13.58 -10.79Q13.58 -8.31 13.64 -5.83Q13.7 -3.35 13.89 -1.33Q14.07 0.68 14.38 1.3Q14.57 1.74 15.16 1.83Q15.75 1.92 16.49 1.89Q17.24 1.86 18.01 1.77Q18.79 1.67 19.34 1.67Q19.53 1.74 19.59 1.95Q19.65 2.17 19.65 2.45Q19.65 2.73 19.59 2.94Q19.53 3.16 19.34 3.16Q18.17 3.16 16.65 3.44Q15.13 3.72 13.42 4.19Q11.72 4.65 10.01 5.27Q8.31 5.89 6.76 6.57Q5.27 7.19 3.04 8.53Q0.81 9.86 -1.43 11.19Q-3.66 12.52 -5.52 13.52Q-7.38 14.51 -8.12 14.51Q-8.43 14.51 -8.84 14.26Q-9.24 14.01 -9.52 13.7Q-9.8 13.39 -9.73 13.11Q-9.67 12.83 -9.05 12.71Q-7.5 12.46 -5.39 11.47Q-3.29 10.48 -1.3 9.3Q0.68 8.12 2.2 7.04Q3.72 5.95 4.15 5.52Q4.46 5.21 4.8 2.76Q5.15 0.31 5.46 -3.19Q5.77 -6.7 5.98 -10.82Q6.2 -14.94 6.2 -18.6Z M69.05 -9.67Q68.86 -10.73 68.67 -11.97Q68.49 -13.21 68.3 -14.32Q68.12 -15.44 67.96 -16.24Q67.81 -17.05 67.74 -17.3Q66.75 -16.93 65.51 -16.43Q64.27 -15.93 63.03 -15.34Q61.79 -14.76 60.68 -14.17Q59.56 -13.58 58.82 -13.08Q57.39 -12.15 56.65 -11.22Q55.9 -10.29 55.9 -8.99Q55.9 -7.19 56.96 -5.83Q58.01 -4.46 60.24 -4.46Q61.42 -4.46 62.69 -4.9Q63.96 -5.33 65.05 -5.89Q66.13 -6.45 66.94 -7.01Q67.74 -7.56 68.05 -7.87Q68.55 -8.37 68.83 -8.71Q69.11 -9.05 69.05 -9.67ZM67.25 -19.28Q66.88 -21.2 66.38 -22.72Q65.88 -24.24 65.14 -25.27Q64.4 -26.29 63.34 -26.81Q62.29 -27.34 60.74 -27.34Q59.37 -27.34 58.23 -26.85Q57.08 -26.35 56.24 -25.67Q55.41 -24.99 54.94 -24.3Q54.48 -23.62 54.41 -23.25Q54.35 -22.75 53.86 -22.75Q52.99 -22.75 52.24 -23.37Q51.5 -23.99 51.5 -24.86Q51.5 -25.36 51.62 -25.61Q53.05 -26.41 55.1 -27.34Q57.14 -28.27 59.34 -29.08Q61.54 -29.88 63.71 -30.41Q65.88 -30.94 67.62 -30.94Q70.22 -30.94 71.62 -30.19Q73.01 -29.45 73.7 -28.09Q74.38 -26.72 74.53 -24.89Q74.69 -23.06 74.81 -20.96Q75 -17.79 75.31 -14.85Q75.62 -11.9 76.24 -9.64Q76.86 -7.38 77.82 -5.98Q78.78 -4.59 80.21 -4.59Q80.89 -4.59 81.69 -4.84Q82.5 -5.08 83.24 -5.42Q83.99 -5.77 84.58 -6.11Q85.17 -6.45 85.35 -6.57Q85.91 -6.57 86.03 -6.01Q86.03 -5.7 85.91 -5.46Q85.79 -5.33 84.98 -4.84Q84.17 -4.34 83 -3.66Q81.82 -2.98 80.39 -2.2Q78.97 -1.43 77.57 -0.74Q76.18 -0.06 75 0.37Q73.82 0.81 73.14 0.81Q72.33 0.81 71.74 0.16Q71.15 -0.5 70.72 -1.58Q70.29 -2.67 69.98 -4.09Q69.67 -5.52 69.42 -7.07Q68.3 -6.14 66.57 -4.87Q64.83 -3.6 62.78 -2.48Q60.74 -1.36 58.6 -0.59Q56.46 0.19 54.48 0.19Q52.8 0.19 51.56 -0.34Q50.32 -0.87 49.48 -1.74Q48.65 -2.6 48.24 -3.75Q47.84 -4.9 47.84 -6.14Q47.84 -8.12 49.05 -9.39Q50.26 -10.66 52.8 -12.03Q53.98 -12.65 56.09 -13.67Q58.2 -14.69 60.4 -15.75Q62.6 -16.8 64.49 -17.76Q66.38 -18.72 67.25 -19.28Z M108.7 -6.32Q109.08 -6.08 109.08 -5.7Q109.08 -5.21 107.65 -4.4Q106.16 -3.53 103.71 -2.36Q101.26 -1.18 98.85 -0.31Q97.67 0.12 96.74 0.43Q95.81 0.74 95.06 0.74Q94.2 0.74 92.93 0.34Q91.65 -0.06 90.72 -0.62Q89.98 -1.12 89.55 -1.4Q89.11 -1.67 89.11 -1.98Q89.11 -2.23 89.27 -2.45Q89.42 -2.67 89.55 -2.98Q89.61 -3.16 89.67 -3.47Q89.73 -3.78 89.73 -4.09Q89.92 -5.64 90.14 -8.59Q90.35 -11.53 90.48 -15.1Q90.6 -18.66 90.69 -22.48Q90.79 -26.29 90.79 -29.57Q90.79 -33.6 90.75 -36.08Q90.72 -38.56 90.6 -40.05Q90.41 -42.1 90.1 -42.75Q89.79 -43.4 89.42 -43.71Q88.99 -44.08 88.59 -44.17Q88.18 -44.27 87.84 -44.3Q87.5 -44.33 87.28 -44.33Q87.07 -44.33 87.07 -44.45Q87.07 -46.5 88.8 -46.5Q90.1 -46.5 91.87 -46.47Q93.64 -46.44 94.82 -46.44Q95.56 -46.44 96.4 -46.53Q97.23 -46.62 98.04 -46.72Q98.85 -46.81 99.53 -46.93Q100.21 -47.06 100.52 -47.18Q100.77 -47.24 100.92 -47Q101.08 -46.75 101.11 -46.38Q101.14 -46 100.99 -45.69Q100.83 -45.38 100.58 -45.32Q100.21 -45.26 99.93 -45.26Q99.65 -45.26 98.97 -45.01Q98.66 -44.89 98.41 -44.24Q98.16 -43.59 97.98 -42.19Q97.79 -40.8 97.61 -38.53Q97.42 -36.27 97.23 -32.86Q97.05 -30.13 96.96 -27.31Q96.86 -24.49 96.77 -21.82Q96.68 -19.16 96.65 -16.86Q96.61 -14.57 96.61 -12.96Q96.61 -11.16 96.65 -9.33Q96.68 -7.5 96.99 -6.45Q97.3 -5.46 98.6 -4.59Q99.9 -3.72 101.33 -3.72Q102.44 -3.72 103.62 -4.03Q104.8 -4.34 105.79 -4.77Q106.78 -5.21 107.56 -5.64Q108.33 -6.08 108.7 -6.32Z M119.53 -10.79Q119.53 -9.49 119.59 -8.28Q119.66 -7.07 120.03 -6.2Q120.4 -5.33 121.14 -4.8Q121.89 -4.28 123.25 -4.28Q123.93 -4.28 124.8 -4.43Q125.67 -4.59 126.44 -4.84Q127.22 -5.08 127.81 -5.33Q128.4 -5.58 128.52 -5.7Q128.71 -5.89 128.77 -5.7Q128.83 -5.52 128.8 -5.24Q128.77 -4.96 128.65 -4.68Q128.52 -4.4 128.34 -4.28Q127.72 -3.97 126.17 -3.16Q124.62 -2.36 122.51 -1.49Q120.52 -0.62 118.63 -0.03Q116.74 0.56 115.5 0.56Q114.08 0.56 113.27 -0.31Q112.46 -1.18 112.46 -2.48Q112.46 -2.91 112.5 -3.22Q112.53 -3.53 112.59 -4.03Q112.65 -4.65 112.81 -6.29Q112.96 -7.94 113.12 -9.98Q113.27 -12.03 113.39 -14.11Q113.52 -16.18 113.52 -17.67V-19.84Q113.52 -21.45 113.33 -22.69Q113.15 -23.93 112.71 -24.61Q112.4 -25.05 111.94 -25.33Q111.47 -25.61 110.79 -25.61Q110.42 -25.61 110.05 -25.45Q109.67 -25.3 109.49 -25.3Q109.36 -25.3 109.09 -25.67Q108.81 -26.04 109.12 -26.23Q109.55 -26.54 110.91 -27.22Q112.28 -27.9 113.89 -28.71Q115.63 -29.57 117.24 -30.23Q118.85 -30.88 119.53 -30.88Q120.21 -30.88 120.46 -30.47Q120.71 -30.07 120.71 -29.57V-29.33Q120.71 -28.71 120.52 -27.34Q120.34 -25.98 120.12 -23.99Q119.9 -22.01 119.72 -19.41Q119.53 -16.8 119.53 -13.76ZM117.05 -43.03Q117.36 -42.97 118.07 -42.35Q118.79 -41.73 119.53 -40.92Q120.28 -40.11 120.83 -39.37Q121.39 -38.63 121.39 -38.38Q121.39 -38.07 120.65 -37.45Q119.9 -36.83 118.94 -36.18Q117.98 -35.53 117.08 -35.03Q116.18 -34.53 115.81 -34.53Q115.63 -34.53 114.91 -35.12Q114.2 -35.71 113.46 -36.46Q112.71 -37.2 112.12 -37.91Q111.53 -38.63 111.53 -38.87Q111.53 -39.18 112.34 -39.83Q113.15 -40.49 114.11 -41.2Q115.07 -41.91 115.97 -42.44Q116.87 -42.97 117.05 -43.03Z M189.76 -5.39Q189.94 -5.39 190 -5.18Q190.07 -4.96 190.07 -4.65Q190.07 -4.34 189.94 -4.25Q189.82 -4.15 189.69 -4.03Q189.26 -3.78 187.62 -2.98Q185.97 -2.17 183.96 -1.33Q181.94 -0.5 179.99 0.16Q178.04 0.81 177.05 0.81Q176.18 0.81 175.4 0.43Q174.63 0.06 174.75 -0.74Q174.88 -1.24 175.03 -2.23Q175.19 -3.22 175.31 -4.65Q175.43 -6.45 175.59 -8.8Q175.74 -11.16 175.74 -14.01Q175.74 -17.36 175.31 -19.56Q174.88 -21.76 174.07 -23.06Q173.26 -24.37 172.09 -24.89Q170.91 -25.42 169.36 -25.42Q167.93 -25.42 166.94 -24.95Q165.95 -24.49 165.2 -23.93Q163.84 -22.88 163.06 -21.23Q162.29 -19.59 162.1 -16.93Q162.04 -16.24 162.01 -15.56Q161.98 -14.88 161.95 -14.07Q161.92 -13.27 161.89 -12.28Q161.86 -11.28 161.86 -9.92Q161.86 -6.26 162.44 -4.84Q163.03 -3.41 164.46 -3.41Q164.96 -3.41 165.08 -3.44Q165.2 -3.47 165.58 -3.53Q165.7 -3.41 165.82 -3.22Q166.01 -2.91 165.76 -2.54Q165.45 -2.17 164.27 -1.58Q163.1 -0.99 161.67 -0.5Q160.24 0 158.88 0.37Q157.52 0.74 156.83 0.74Q155.97 0.74 155.25 0.53Q154.54 0.31 154.54 0Q154.54 -0.37 154.79 -0.87Q154.97 -1.18 155.16 -2.36Q155.35 -3.53 155.5 -5.39Q155.66 -7.25 155.78 -9.7Q155.9 -12.15 155.9 -15Q155.9 -16.49 155.75 -18.29Q155.59 -20.09 154.97 -21.67Q154.35 -23.25 153.15 -24.34Q151.94 -25.42 149.83 -25.42Q148.59 -25.42 147.6 -25.08Q146.6 -24.74 145.92 -24.24Q144.56 -23.19 143.6 -21.64Q142.64 -20.09 142.33 -17.24Q142.2 -15.93 142.08 -14.54Q141.95 -13.14 141.95 -11.35Q141.95 -8.99 142.08 -7.44Q142.2 -5.89 142.51 -4.99Q142.82 -4.09 143.26 -3.75Q143.69 -3.41 144.37 -3.41Q145.05 -3.41 145.3 -3.53Q145.61 -3.66 145.74 -3.16Q145.86 -2.67 145.67 -2.54Q145.43 -2.29 144.37 -1.77Q143.32 -1.24 141.95 -0.68Q140.59 -0.12 139.16 0.31Q137.74 0.74 136.75 0.74Q135.69 0.74 135.1 0.5Q134.51 0.25 134.51 -0.06Q134.51 -0.12 134.64 -0.47Q134.76 -0.81 134.82 -1.05Q135.07 -2.98 135.29 -4.62Q135.51 -6.26 135.6 -8.18Q135.69 -10.11 135.75 -12.59Q135.82 -15.07 135.82 -18.6Q135.82 -22.01 134.73 -23.62Q133.65 -25.23 132.47 -25.23Q131.97 -25.23 131.63 -25.14Q131.29 -25.05 130.98 -24.99Q130.61 -24.92 130.61 -25.36V-25.79Q130.67 -25.85 131.85 -26.66Q133.03 -27.47 134.64 -28.4Q136.25 -29.33 137.99 -30.1Q139.72 -30.88 140.84 -30.88Q141.58 -30.88 142.11 -30.44Q142.64 -30.01 142.64 -28.83Q142.64 -28.27 142.61 -27.59Q142.57 -26.91 142.54 -26.16Q142.51 -25.42 142.45 -24.71Q142.39 -23.99 142.39 -23.5Q143.26 -24.3 144.59 -25.61Q145.92 -26.91 147.6 -28.09Q149.27 -29.26 151.22 -30.13Q153.18 -31 155.35 -31Q158.2 -31 160 -29.33Q161.79 -27.65 161.92 -23.5Q162.91 -24.43 164.34 -25.73Q165.76 -27.03 167.53 -28.21Q169.3 -29.39 171.28 -30.19Q173.26 -31 175.31 -31Q182.5 -31 182.5 -23.37Q182.5 -22.13 182.38 -20.52Q182.25 -18.91 182.07 -17.14Q181.88 -15.38 181.76 -13.64Q181.63 -11.9 181.63 -10.48Q181.63 -4.03 185.04 -4.03Q185.6 -4.03 186.28 -4.19Q186.97 -4.34 187.65 -4.56Q188.33 -4.77 188.89 -4.99Q189.45 -5.21 189.69 -5.39Z M217.94 -2.85Q215.96 -1.61 213.05 -0.62Q210.13 0.37 207.4 0.37Q206.54 0.37 205.45 0.25Q204.37 0.12 203.68 0Q203.62 1.18 203.59 2.42Q203.56 3.66 203.53 4.8Q203.5 5.95 203.47 6.94Q203.44 7.94 203.44 8.62Q203.44 11.78 203.96 12.9Q204.49 14.01 205.61 14.01Q206.16 14.01 207.12 13.86Q208.09 13.7 208.83 13.33Q208.95 13.21 209.11 13.58Q209.26 13.95 209.26 14.26Q209.26 14.32 208.4 14.6Q207.53 14.88 206.19 15.28Q204.86 15.69 203.31 16.15Q201.76 16.62 200.34 17.02Q198.91 17.42 197.89 17.67Q196.86 17.92 196.62 17.92Q196.24 17.92 195.93 17.86Q195.62 17.79 195.62 17.3Q195.62 16.99 195.84 16.89Q196.06 16.8 196.18 16.62Q196.49 16.24 196.55 15.22Q196.62 14.2 196.74 13.21Q196.93 10.79 197.14 7.47Q197.36 4.15 197.55 0.53Q197.73 -3.1 197.89 -6.73Q198.04 -10.35 198.04 -13.33Q198.04 -17.55 197.7 -19.93Q197.36 -22.32 196.74 -23.47Q196.12 -24.61 195.34 -24.89Q194.57 -25.17 193.7 -25.17Q193.52 -25.17 193.18 -25.14Q192.83 -25.11 192.52 -25.11Q192.28 -25.11 192.28 -25.54Q192.28 -25.85 192.31 -25.95Q192.34 -26.04 192.59 -26.16Q192.9 -26.35 193.73 -26.78Q194.57 -27.22 195.65 -27.74Q196.74 -28.27 197.98 -28.86Q199.22 -29.45 200.31 -29.91Q201.39 -30.38 202.2 -30.69Q203 -31 203.31 -31Q204.24 -31 204.58 -30.19Q204.92 -29.39 204.99 -28.02Q204.99 -27.47 204.95 -26.26Q204.92 -25.05 204.86 -23.5Q205.67 -24.37 207.06 -25.64Q208.46 -26.91 210.22 -28.09Q211.99 -29.26 213.94 -30.1Q215.9 -30.94 217.76 -30.94Q220.42 -30.94 222.5 -29.98Q224.58 -29.02 225.94 -27.43Q227.31 -25.85 228.02 -23.84Q228.73 -21.82 228.73 -19.72Q228.73 -16.74 227.83 -14.23Q226.93 -11.72 225.63 -9.77Q224.33 -7.81 222.78 -6.39Q221.23 -4.96 219.93 -4.15ZM203.99 -7.63Q204.18 -6.94 204.99 -6.23Q205.79 -5.52 207.06 -4.93Q208.33 -4.34 209.98 -3.94Q211.62 -3.53 213.48 -3.53Q215.15 -3.53 216.67 -4.19Q218.19 -4.84 219.31 -6.23Q220.42 -7.63 221.07 -9.86Q221.73 -12.09 221.73 -15.25Q221.73 -17.48 221.11 -19.47Q220.49 -21.45 219.31 -22.94Q218.13 -24.43 216.52 -25.27Q214.91 -26.1 212.98 -26.1Q211.99 -26.1 210.78 -25.67Q209.57 -25.23 208.46 -24.49Q207.34 -23.75 206.38 -22.75Q205.42 -21.76 204.99 -20.65Q204.68 -19.9 204.46 -18.32Q204.24 -16.74 204.15 -14.85Q204.06 -12.96 204.02 -11.04Q203.99 -9.11 203.99 -7.63Z M236.65 -1.55Q236.15 -1.24 235.72 -0.53Q235.28 0.19 235.16 0.56Q235.1 0.68 234.82 0.77Q234.54 0.87 234.41 0.87Q233.86 0.87 233.86 0.31Q233.86 0.12 234.35 -0.68Q234.72 -1.3 235.53 -2.63Q236.34 -3.97 237.17 -5.36Q238.01 -6.76 238.72 -7.9Q239.44 -9.05 239.75 -9.42Q240.06 -9.73 240.49 -9.52Q240.92 -9.3 240.74 -8.99Q240.61 -8.87 240.55 -8.68Q240.49 -8.49 240.49 -8.06Q240.49 -7.5 241.45 -6.67Q242.41 -5.83 243.9 -5.05Q245.39 -4.28 247.19 -3.72Q248.98 -3.16 250.72 -3.16Q252.77 -3.16 253.97 -4.34Q255.18 -5.52 255.18 -7.44Q255.18 -9.61 253.82 -10.66Q252.46 -11.72 250.44 -12.28Q248.43 -12.83 246.04 -13.18Q243.65 -13.52 241.64 -14.2Q239.62 -14.88 238.26 -16.18Q236.89 -17.48 236.89 -19.96Q236.89 -21.89 238.23 -23.87Q239.56 -25.85 241.76 -27.4Q243.96 -28.95 246.81 -29.95Q249.67 -30.94 252.77 -30.94Q253.7 -30.94 254.94 -30.75Q256.18 -30.57 257.38 -30.29Q258.59 -30.01 259.62 -29.73Q260.64 -29.45 261.14 -29.26Q261.26 -29.26 261.07 -28.77Q260.89 -28.21 260.14 -27.06Q259.4 -25.92 258.5 -24.8Q257.6 -23.68 256.83 -22.82Q256.05 -21.95 255.74 -21.95Q255.68 -21.95 255.37 -21.95Q255.06 -21.95 254.94 -22.07Q255 -22.38 255 -22.88Q255 -25.05 253.04 -26.29Q251.09 -27.53 247.37 -27.53Q245.57 -27.53 244.43 -26.47Q243.28 -25.42 243.28 -23.93Q243.28 -21.51 244.64 -20.34Q246.01 -19.16 248.05 -18.57Q250.1 -17.98 252.46 -17.67Q254.81 -17.36 256.86 -16.71Q258.9 -16.06 260.27 -14.76Q261.63 -13.45 261.63 -10.85Q261.63 -9.67 261.14 -8.56Q260.64 -7.44 259.83 -6.45Q259.03 -5.46 258.04 -4.62Q257.04 -3.78 256.05 -3.16Q255.12 -2.54 253.94 -1.89Q252.77 -1.24 251.4 -0.68Q250.04 -0.12 248.61 0.22Q247.19 0.56 245.76 0.56Q245.08 0.56 243.59 0.28Q242.1 0 240.58 -0.37Q239.06 -0.74 237.89 -1.08Q236.71 -1.43 236.65 -1.55Z M299 -7.25Q298.31 -6.51 296.89 -5.21Q295.46 -3.91 293.45 -2.6Q291.43 -1.3 288.95 -0.37Q286.47 0.56 283.68 0.56Q281.14 0.56 278.72 -0.22Q276.3 -0.99 274.38 -2.57Q272.46 -4.15 271.31 -6.6Q270.17 -9.05 270.17 -12.46Q270.17 -15.25 270.54 -17.27Q270.91 -19.28 271.53 -20.8Q272.15 -22.32 272.92 -23.41Q273.7 -24.49 274.51 -25.36Q275.5 -26.47 276.92 -27.47Q278.35 -28.46 279.99 -29.26Q281.64 -30.07 283.46 -30.54Q285.29 -31 287.15 -31Q290.5 -31 292.39 -29.88Q294.28 -28.77 294.28 -26.78Q294.28 -25.54 293.54 -24.49Q294.16 -24.68 295.12 -25.11Q296.08 -25.54 297.07 -26.01Q298.07 -26.47 298.84 -26.85Q299.62 -27.22 299.86 -27.4Q299.99 -27.53 300.14 -27.5Q300.3 -27.47 300.3 -27.28Q300.3 -26.47 299.99 -25.95Q299.68 -25.42 299.24 -25.11Q298.25 -24.49 296.39 -23.56Q294.53 -22.63 292.27 -21.61Q290.01 -20.58 287.59 -19.56Q285.17 -18.54 283.03 -17.61Q280.89 -16.68 279.31 -15.96Q277.73 -15.25 277.17 -14.94Q277.17 -12.83 278.01 -11Q278.85 -9.18 280.33 -7.81Q281.82 -6.45 283.9 -5.67Q285.98 -4.9 288.46 -4.9Q290.69 -4.9 292.49 -5.36Q294.28 -5.83 295.52 -6.42Q296.76 -7.01 297.48 -7.47Q298.19 -7.94 298.25 -7.94Q298.5 -7.94 298.75 -7.72Q299 -7.5 299 -7.25ZM277.17 -16.74Q278.23 -17.11 279.56 -17.64Q280.89 -18.17 282.16 -18.79Q283.43 -19.41 284.49 -19.96Q285.54 -20.52 286.1 -20.96Q287.22 -21.76 287.22 -23.68Q287.22 -24.43 286.94 -25.23Q286.66 -26.04 286.1 -26.69Q285.54 -27.34 284.74 -27.74Q283.93 -28.15 282.94 -28.15Q282.07 -28.15 281.08 -27.56Q280.09 -26.97 279.22 -25.64Q278.35 -24.3 277.76 -22.1Q277.17 -19.9 277.17 -16.74Z M304.31 -1.55Q303.81 -1.24 303.38 -0.53Q302.94 0.19 302.82 0.56Q302.76 0.68 302.48 0.77Q302.2 0.87 302.07 0.87Q301.52 0.87 301.52 0.31Q301.52 0.12 302.01 -0.68Q302.38 -1.3 303.19 -2.63Q304 -3.97 304.83 -5.36Q305.67 -6.76 306.38 -7.9Q307.1 -9.05 307.41 -9.42Q307.72 -9.73 308.15 -9.52Q308.58 -9.3 308.4 -8.99Q308.27 -8.87 308.21 -8.68Q308.15 -8.49 308.15 -8.06Q308.15 -7.5 309.11 -6.67Q310.07 -5.83 311.56 -5.05Q313.05 -4.28 314.85 -3.72Q316.64 -3.16 318.38 -3.16Q320.43 -3.16 321.63 -4.34Q322.84 -5.52 322.84 -7.44Q322.84 -9.61 321.48 -10.66Q320.12 -11.72 318.1 -12.28Q316.09 -12.83 313.7 -13.18Q311.31 -13.52 309.3 -14.2Q307.28 -14.88 305.92 -16.18Q304.55 -17.48 304.55 -19.96Q304.55 -21.89 305.89 -23.87Q307.22 -25.85 309.42 -27.4Q311.62 -28.95 314.47 -29.95Q317.33 -30.94 320.43 -30.94Q321.36 -30.94 322.6 -30.75Q323.84 -30.57 325.04 -30.29Q326.25 -30.01 327.28 -29.73Q328.3 -29.45 328.8 -29.26Q328.92 -29.26 328.73 -28.77Q328.55 -28.21 327.8 -27.06Q327.06 -25.92 326.16 -24.8Q325.26 -23.68 324.49 -22.82Q323.71 -21.95 323.4 -21.95Q323.34 -21.95 323.03 -21.95Q322.72 -21.95 322.6 -22.07Q322.66 -22.38 322.66 -22.88Q322.66 -25.05 320.7 -26.29Q318.75 -27.53 315.03 -27.53Q313.23 -27.53 312.09 -26.47Q310.94 -25.42 310.94 -23.93Q310.94 -21.51 312.3 -20.34Q313.67 -19.16 315.71 -18.57Q317.76 -17.98 320.12 -17.67Q322.47 -17.36 324.52 -16.71Q326.56 -16.06 327.93 -14.76Q329.29 -13.45 329.29 -10.85Q329.29 -9.67 328.8 -8.56Q328.3 -7.44 327.49 -6.45Q326.69 -5.46 325.7 -4.62Q324.7 -3.78 323.71 -3.16Q322.78 -2.54 321.6 -1.89Q320.43 -1.24 319.06 -0.68Q317.7 -0.12 316.27 0.22Q314.85 0.56 313.42 0.56Q312.74 0.56 311.25 0.28Q309.76 0 308.24 -0.37Q306.72 -0.74 305.55 -1.08Q304.37 -1.43 304.31 -1.55Z M367.15 -8.62Q367.28 -8.74 367.37 -8.59Q367.46 -8.43 367.49 -8.15Q367.52 -7.87 367.46 -7.56Q367.4 -7.25 367.21 -7.07Q365.97 -5.89 364.11 -4.59Q362.25 -3.29 360.27 -2.17Q359.71 -1.86 358.72 -1.36Q357.73 -0.87 356.52 -0.4Q355.31 0.06 354.04 0.4Q352.77 0.74 351.65 0.74Q349.42 0.74 347.44 -0.12Q345.45 -0.99 343.96 -2.51Q342.48 -4.03 341.64 -6.14Q340.8 -8.25 340.8 -10.73Q340.8 -13.39 341.55 -15.75Q342.29 -18.1 343.25 -19.96Q344.21 -21.82 345.08 -23.09Q345.95 -24.37 346.26 -24.99Q345.08 -25.05 344.12 -25.08Q343.16 -25.11 342.29 -25.11Q340.31 -25.11 338.94 -25.08Q337.58 -25.05 336.52 -24.8Q336.03 -24.68 335.59 -24.3Q335.16 -23.93 334.85 -23.75Q334.73 -23.87 334.51 -24.09Q334.29 -24.3 334.29 -24.55Q334.29 -24.68 334.35 -24.74Q334.35 -24.8 335.16 -25.45Q335.97 -26.1 337.17 -27Q338.38 -27.9 339.84 -28.98Q341.3 -30.07 342.63 -31Q343.96 -31.93 344.92 -32.58Q345.89 -33.23 346.2 -33.36Q346.57 -33.48 346.94 -33.23Q347.31 -32.98 347.19 -32.86Q347 -32.74 346.63 -32.39Q346.26 -32.05 346.38 -31.81Q347.06 -31.25 348.74 -30.81Q350.41 -30.38 352.52 -30.1Q354.63 -29.82 356.86 -29.67Q359.09 -29.51 360.89 -29.51Q363.56 -29.51 365.17 -29.67Q366.78 -29.82 367.83 -30.07Q368.83 -30.32 369.14 -30.44Q369.2 -30.44 369.38 -30.26Q369.57 -30.07 369.57 -29.82Q369.57 -29.7 368.67 -29.2Q367.77 -28.71 366.84 -28.15Q366.28 -27.84 365.51 -27.34Q364.73 -26.85 363.83 -26.38Q362.94 -25.92 361.94 -25.54Q360.95 -25.17 360.02 -25.11Q359.09 -24.99 357.85 -24.92Q356.61 -24.86 355.25 -24.83Q353.88 -24.8 352.49 -24.77Q351.09 -24.74 349.92 -24.74Q349.73 -24.43 349.33 -23.71Q348.92 -23 348.55 -21.89Q348.18 -20.77 347.87 -19.34Q347.56 -17.92 347.56 -16.24Q347.56 -13.7 348.33 -11.56Q349.11 -9.42 350.5 -7.87Q351.9 -6.32 353.82 -5.46Q355.74 -4.59 357.98 -4.59Q359.28 -4.59 360.49 -4.9Q361.7 -5.21 362.78 -5.7Q363.87 -6.2 364.8 -6.79Q365.73 -7.38 366.41 -7.94Z" fill="#9A7A46" opacity="0.42" filter="url(#softenB)"/>
    <path transform="translate(64,134)" d="M13.58 -18.72Q13.89 -17.86 15.75 -17.08Q17.61 -16.31 20.58 -16.31Q23.31 -16.31 25.58 -17.33Q27.84 -18.35 29.48 -20.4Q31.12 -22.44 32.02 -25.45Q32.92 -28.46 32.92 -32.43Q32.92 -35.34 32.05 -37.73Q31.19 -40.11 29.67 -41.79Q28.15 -43.46 26.1 -44.39Q24.06 -45.32 21.7 -45.32Q20.4 -45.32 19.13 -44.98Q17.86 -44.64 16.83 -44.17Q15.81 -43.71 15.16 -43.18Q14.51 -42.66 14.38 -42.22Q14.26 -41.85 14.17 -40.36Q14.07 -38.87 13.98 -36.73Q13.89 -34.6 13.79 -32.02Q13.7 -29.45 13.67 -26.97Q13.64 -24.49 13.61 -22.29Q13.58 -20.09 13.58 -18.72ZM6.2 -18.6Q6.2 -26.16 6.08 -30.94Q5.95 -35.71 5.7 -38.41Q5.46 -41.11 5.08 -42.1Q4.71 -43.09 4.15 -43.09Q3.97 -43.09 3.41 -43.06Q2.85 -43.03 2.2 -43.03Q1.55 -43.03 1.05 -43.06Q0.56 -43.09 0.56 -43.21Q0.56 -43.4 0.56 -43.93Q0.56 -44.45 0.81 -44.58Q1.12 -44.64 2.17 -44.64Q3.22 -44.64 4.62 -44.58Q6.01 -44.52 7.5 -44.48Q8.99 -44.45 10.23 -44.45Q11.47 -44.45 12.25 -44.45Q13.02 -44.45 12.96 -44.58Q13.21 -44.58 14.17 -44.98Q15.13 -45.38 16.59 -45.88Q18.04 -46.38 19.93 -46.78Q21.82 -47.18 23.87 -47.18Q31.62 -47.18 36.02 -43.93Q40.42 -40.67 40.42 -34.97Q40.42 -30.13 38.5 -26.32Q36.58 -22.51 33.45 -19.81Q30.32 -17.11 26.38 -15.69Q22.44 -14.26 18.41 -14.26Q17.17 -14.26 15.72 -14.38Q14.26 -14.51 13.58 -14.82Q13.58 -13.27 13.58 -10.79Q13.58 -8.31 13.64 -5.83Q13.7 -3.35 13.89 -1.33Q14.07 0.68 14.38 1.3Q14.57 1.74 15.16 1.83Q15.75 1.92 16.49 1.89Q17.24 1.86 18.01 1.77Q18.79 1.67 19.34 1.67Q19.53 1.74 19.59 1.95Q19.65 2.17 19.65 2.45Q19.65 2.73 19.59 2.94Q19.53 3.16 19.34 3.16Q18.17 3.16 16.65 3.44Q15.13 3.72 13.42 4.19Q11.72 4.65 10.01 5.27Q8.31 5.89 6.76 6.57Q5.27 7.19 3.04 8.53Q0.81 9.86 -1.43 11.19Q-3.66 12.52 -5.52 13.52Q-7.38 14.51 -8.12 14.51Q-8.43 14.51 -8.84 14.26Q-9.24 14.01 -9.52 13.7Q-9.8 13.39 -9.73 13.11Q-9.67 12.83 -9.05 12.71Q-7.5 12.46 -5.39 11.47Q-3.29 10.48 -1.3 9.3Q0.68 8.12 2.2 7.04Q3.72 5.95 4.15 5.52Q4.46 5.21 4.8 2.76Q5.15 0.31 5.46 -3.19Q5.77 -6.7 5.98 -10.82Q6.2 -14.94 6.2 -18.6Z M69.05 -9.67Q68.86 -10.73 68.67 -11.97Q68.49 -13.21 68.3 -14.32Q68.12 -15.44 67.96 -16.24Q67.81 -17.05 67.74 -17.3Q66.75 -16.93 65.51 -16.43Q64.27 -15.93 63.03 -15.34Q61.79 -14.76 60.68 -14.17Q59.56 -13.58 58.82 -13.08Q57.39 -12.15 56.65 -11.22Q55.9 -10.29 55.9 -8.99Q55.9 -7.19 56.96 -5.83Q58.01 -4.46 60.24 -4.46Q61.42 -4.46 62.69 -4.9Q63.96 -5.33 65.05 -5.89Q66.13 -6.45 66.94 -7.01Q67.74 -7.56 68.05 -7.87Q68.55 -8.37 68.83 -8.71Q69.11 -9.05 69.05 -9.67ZM67.25 -19.28Q66.88 -21.2 66.38 -22.72Q65.88 -24.24 65.14 -25.27Q64.4 -26.29 63.34 -26.81Q62.29 -27.34 60.74 -27.34Q59.37 -27.34 58.23 -26.85Q57.08 -26.35 56.24 -25.67Q55.41 -24.99 54.94 -24.3Q54.48 -23.62 54.41 -23.25Q54.35 -22.75 53.86 -22.75Q52.99 -22.75 52.24 -23.37Q51.5 -23.99 51.5 -24.86Q51.5 -25.36 51.62 -25.61Q53.05 -26.41 55.1 -27.34Q57.14 -28.27 59.34 -29.08Q61.54 -29.88 63.71 -30.41Q65.88 -30.94 67.62 -30.94Q70.22 -30.94 71.62 -30.19Q73.01 -29.45 73.7 -28.09Q74.38 -26.72 74.53 -24.89Q74.69 -23.06 74.81 -20.96Q75 -17.79 75.31 -14.85Q75.62 -11.9 76.24 -9.64Q76.86 -7.38 77.82 -5.98Q78.78 -4.59 80.21 -4.59Q80.89 -4.59 81.69 -4.84Q82.5 -5.08 83.24 -5.42Q83.99 -5.77 84.58 -6.11Q85.17 -6.45 85.35 -6.57Q85.91 -6.57 86.03 -6.01Q86.03 -5.7 85.91 -5.46Q85.79 -5.33 84.98 -4.84Q84.17 -4.34 83 -3.66Q81.82 -2.98 80.39 -2.2Q78.97 -1.43 77.57 -0.74Q76.18 -0.06 75 0.37Q73.82 0.81 73.14 0.81Q72.33 0.81 71.74 0.16Q71.15 -0.5 70.72 -1.58Q70.29 -2.67 69.98 -4.09Q69.67 -5.52 69.42 -7.07Q68.3 -6.14 66.57 -4.87Q64.83 -3.6 62.78 -2.48Q60.74 -1.36 58.6 -0.59Q56.46 0.19 54.48 0.19Q52.8 0.19 51.56 -0.34Q50.32 -0.87 49.48 -1.74Q48.65 -2.6 48.24 -3.75Q47.84 -4.9 47.84 -6.14Q47.84 -8.12 49.05 -9.39Q50.26 -10.66 52.8 -12.03Q53.98 -12.65 56.09 -13.67Q58.2 -14.69 60.4 -15.75Q62.6 -16.8 64.49 -17.76Q66.38 -18.72 67.25 -19.28Z M108.7 -6.32Q109.08 -6.08 109.08 -5.7Q109.08 -5.21 107.65 -4.4Q106.16 -3.53 103.71 -2.36Q101.26 -1.18 98.85 -0.31Q97.67 0.12 96.74 0.43Q95.81 0.74 95.06 0.74Q94.2 0.74 92.93 0.34Q91.65 -0.06 90.72 -0.62Q89.98 -1.12 89.55 -1.4Q89.11 -1.67 89.11 -1.98Q89.11 -2.23 89.27 -2.45Q89.42 -2.67 89.55 -2.98Q89.61 -3.16 89.67 -3.47Q89.73 -3.78 89.73 -4.09Q89.92 -5.64 90.14 -8.59Q90.35 -11.53 90.48 -15.1Q90.6 -18.66 90.69 -22.48Q90.79 -26.29 90.79 -29.57Q90.79 -33.6 90.75 -36.08Q90.72 -38.56 90.6 -40.05Q90.41 -42.1 90.1 -42.75Q89.79 -43.4 89.42 -43.71Q88.99 -44.08 88.59 -44.17Q88.18 -44.27 87.84 -44.3Q87.5 -44.33 87.28 -44.33Q87.07 -44.33 87.07 -44.45Q87.07 -46.5 88.8 -46.5Q90.1 -46.5 91.87 -46.47Q93.64 -46.44 94.82 -46.44Q95.56 -46.44 96.4 -46.53Q97.23 -46.62 98.04 -46.72Q98.85 -46.81 99.53 -46.93Q100.21 -47.06 100.52 -47.18Q100.77 -47.24 100.92 -47Q101.08 -46.75 101.11 -46.38Q101.14 -46 100.99 -45.69Q100.83 -45.38 100.58 -45.32Q100.21 -45.26 99.93 -45.26Q99.65 -45.26 98.97 -45.01Q98.66 -44.89 98.41 -44.24Q98.16 -43.59 97.98 -42.19Q97.79 -40.8 97.61 -38.53Q97.42 -36.27 97.23 -32.86Q97.05 -30.13 96.96 -27.31Q96.86 -24.49 96.77 -21.82Q96.68 -19.16 96.65 -16.86Q96.61 -14.57 96.61 -12.96Q96.61 -11.16 96.65 -9.33Q96.68 -7.5 96.99 -6.45Q97.3 -5.46 98.6 -4.59Q99.9 -3.72 101.33 -3.72Q102.44 -3.72 103.62 -4.03Q104.8 -4.34 105.79 -4.77Q106.78 -5.21 107.56 -5.64Q108.33 -6.08 108.7 -6.32Z M119.53 -10.79Q119.53 -9.49 119.59 -8.28Q119.66 -7.07 120.03 -6.2Q120.4 -5.33 121.14 -4.8Q121.89 -4.28 123.25 -4.28Q123.93 -4.28 124.8 -4.43Q125.67 -4.59 126.44 -4.84Q127.22 -5.08 127.81 -5.33Q128.4 -5.58 128.52 -5.7Q128.71 -5.89 128.77 -5.7Q128.83 -5.52 128.8 -5.24Q128.77 -4.96 128.65 -4.68Q128.52 -4.4 128.34 -4.28Q127.72 -3.97 126.17 -3.16Q124.62 -2.36 122.51 -1.49Q120.52 -0.62 118.63 -0.03Q116.74 0.56 115.5 0.56Q114.08 0.56 113.27 -0.31Q112.46 -1.18 112.46 -2.48Q112.46 -2.91 112.5 -3.22Q112.53 -3.53 112.59 -4.03Q112.65 -4.65 112.81 -6.29Q112.96 -7.94 113.12 -9.98Q113.27 -12.03 113.39 -14.11Q113.52 -16.18 113.52 -17.67V-19.84Q113.52 -21.45 113.33 -22.69Q113.15 -23.93 112.71 -24.61Q112.4 -25.05 111.94 -25.33Q111.47 -25.61 110.79 -25.61Q110.42 -25.61 110.05 -25.45Q109.67 -25.3 109.49 -25.3Q109.36 -25.3 109.09 -25.67Q108.81 -26.04 109.12 -26.23Q109.55 -26.54 110.91 -27.22Q112.28 -27.9 113.89 -28.71Q115.63 -29.57 117.24 -30.23Q118.85 -30.88 119.53 -30.88Q120.21 -30.88 120.46 -30.47Q120.71 -30.07 120.71 -29.57V-29.33Q120.71 -28.71 120.52 -27.34Q120.34 -25.98 120.12 -23.99Q119.9 -22.01 119.72 -19.41Q119.53 -16.8 119.53 -13.76ZM117.05 -43.03Q117.36 -42.97 118.07 -42.35Q118.79 -41.73 119.53 -40.92Q120.28 -40.11 120.83 -39.37Q121.39 -38.63 121.39 -38.38Q121.39 -38.07 120.65 -37.45Q119.9 -36.83 118.94 -36.18Q117.98 -35.53 117.08 -35.03Q116.18 -34.53 115.81 -34.53Q115.63 -34.53 114.91 -35.12Q114.2 -35.71 113.46 -36.46Q112.71 -37.2 112.12 -37.91Q111.53 -38.63 111.53 -38.87Q111.53 -39.18 112.34 -39.83Q113.15 -40.49 114.11 -41.2Q115.07 -41.91 115.97 -42.44Q116.87 -42.97 117.05 -43.03Z M189.76 -5.39Q189.94 -5.39 190 -5.18Q190.07 -4.96 190.07 -4.65Q190.07 -4.34 189.94 -4.25Q189.82 -4.15 189.69 -4.03Q189.26 -3.78 187.62 -2.98Q185.97 -2.17 183.96 -1.33Q181.94 -0.5 179.99 0.16Q178.04 0.81 177.05 0.81Q176.18 0.81 175.4 0.43Q174.63 0.06 174.75 -0.74Q174.88 -1.24 175.03 -2.23Q175.19 -3.22 175.31 -4.65Q175.43 -6.45 175.59 -8.8Q175.74 -11.16 175.74 -14.01Q175.74 -17.36 175.31 -19.56Q174.88 -21.76 174.07 -23.06Q173.26 -24.37 172.09 -24.89Q170.91 -25.42 169.36 -25.42Q167.93 -25.42 166.94 -24.95Q165.95 -24.49 165.2 -23.93Q163.84 -22.88 163.06 -21.23Q162.29 -19.59 162.1 -16.93Q162.04 -16.24 162.01 -15.56Q161.98 -14.88 161.95 -14.07Q161.92 -13.27 161.89 -12.28Q161.86 -11.28 161.86 -9.92Q161.86 -6.26 162.44 -4.84Q163.03 -3.41 164.46 -3.41Q164.96 -3.41 165.08 -3.44Q165.2 -3.47 165.58 -3.53Q165.7 -3.41 165.82 -3.22Q166.01 -2.91 165.76 -2.54Q165.45 -2.17 164.27 -1.58Q163.1 -0.99 161.67 -0.5Q160.24 0 158.88 0.37Q157.52 0.74 156.83 0.74Q155.97 0.74 155.25 0.53Q154.54 0.31 154.54 0Q154.54 -0.37 154.79 -0.87Q154.97 -1.18 155.16 -2.36Q155.35 -3.53 155.5 -5.39Q155.66 -7.25 155.78 -9.7Q155.9 -12.15 155.9 -15Q155.9 -16.49 155.75 -18.29Q155.59 -20.09 154.97 -21.67Q154.35 -23.25 153.15 -24.34Q151.94 -25.42 149.83 -25.42Q148.59 -25.42 147.6 -25.08Q146.6 -24.74 145.92 -24.24Q144.56 -23.19 143.6 -21.64Q142.64 -20.09 142.33 -17.24Q142.2 -15.93 142.08 -14.54Q141.95 -13.14 141.95 -11.35Q141.95 -8.99 142.08 -7.44Q142.2 -5.89 142.51 -4.99Q142.82 -4.09 143.26 -3.75Q143.69 -3.41 144.37 -3.41Q145.05 -3.41 145.3 -3.53Q145.61 -3.66 145.74 -3.16Q145.86 -2.67 145.67 -2.54Q145.43 -2.29 144.37 -1.77Q143.32 -1.24 141.95 -0.68Q140.59 -0.12 139.16 0.31Q137.74 0.74 136.75 0.74Q135.69 0.74 135.1 0.5Q134.51 0.25 134.51 -0.06Q134.51 -0.12 134.64 -0.47Q134.76 -0.81 134.82 -1.05Q135.07 -2.98 135.29 -4.62Q135.51 -6.26 135.6 -8.18Q135.69 -10.11 135.75 -12.59Q135.82 -15.07 135.82 -18.6Q135.82 -22.01 134.73 -23.62Q133.65 -25.23 132.47 -25.23Q131.97 -25.23 131.63 -25.14Q131.29 -25.05 130.98 -24.99Q130.61 -24.92 130.61 -25.36V-25.79Q130.67 -25.85 131.85 -26.66Q133.03 -27.47 134.64 -28.4Q136.25 -29.33 137.99 -30.1Q139.72 -30.88 140.84 -30.88Q141.58 -30.88 142.11 -30.44Q142.64 -30.01 142.64 -28.83Q142.64 -28.27 142.61 -27.59Q142.57 -26.91 142.54 -26.16Q142.51 -25.42 142.45 -24.71Q142.39 -23.99 142.39 -23.5Q143.26 -24.3 144.59 -25.61Q145.92 -26.91 147.6 -28.09Q149.27 -29.26 151.22 -30.13Q153.18 -31 155.35 -31Q158.2 -31 160 -29.33Q161.79 -27.65 161.92 -23.5Q162.91 -24.43 164.34 -25.73Q165.76 -27.03 167.53 -28.21Q169.3 -29.39 171.28 -30.19Q173.26 -31 175.31 -31Q182.5 -31 182.5 -23.37Q182.5 -22.13 182.38 -20.52Q182.25 -18.91 182.07 -17.14Q181.88 -15.38 181.76 -13.64Q181.63 -11.9 181.63 -10.48Q181.63 -4.03 185.04 -4.03Q185.6 -4.03 186.28 -4.19Q186.97 -4.34 187.65 -4.56Q188.33 -4.77 188.89 -4.99Q189.45 -5.21 189.69 -5.39Z M217.94 -2.85Q215.96 -1.61 213.05 -0.62Q210.13 0.37 207.4 0.37Q206.54 0.37 205.45 0.25Q204.37 0.12 203.68 0Q203.62 1.18 203.59 2.42Q203.56 3.66 203.53 4.8Q203.5 5.95 203.47 6.94Q203.44 7.94 203.44 8.62Q203.44 11.78 203.96 12.9Q204.49 14.01 205.61 14.01Q206.16 14.01 207.12 13.86Q208.09 13.7 208.83 13.33Q208.95 13.21 209.11 13.58Q209.26 13.95 209.26 14.26Q209.26 14.32 208.4 14.6Q207.53 14.88 206.19 15.28Q204.86 15.69 203.31 16.15Q201.76 16.62 200.34 17.02Q198.91 17.42 197.89 17.67Q196.86 17.92 196.62 17.92Q196.24 17.92 195.93 17.86Q195.62 17.79 195.62 17.3Q195.62 16.99 195.84 16.89Q196.06 16.8 196.18 16.62Q196.49 16.24 196.55 15.22Q196.62 14.2 196.74 13.21Q196.93 10.79 197.14 7.47Q197.36 4.15 197.55 0.53Q197.73 -3.1 197.89 -6.73Q198.04 -10.35 198.04 -13.33Q198.04 -17.55 197.7 -19.93Q197.36 -22.32 196.74 -23.47Q196.12 -24.61 195.34 -24.89Q194.57 -25.17 193.7 -25.17Q193.52 -25.17 193.18 -25.14Q192.83 -25.11 192.52 -25.11Q192.28 -25.11 192.28 -25.54Q192.28 -25.85 192.31 -25.95Q192.34 -26.04 192.59 -26.16Q192.9 -26.35 193.73 -26.78Q194.57 -27.22 195.65 -27.74Q196.74 -28.27 197.98 -28.86Q199.22 -29.45 200.31 -29.91Q201.39 -30.38 202.2 -30.69Q203 -31 203.31 -31Q204.24 -31 204.58 -30.19Q204.92 -29.39 204.99 -28.02Q204.99 -27.47 204.95 -26.26Q204.92 -25.05 204.86 -23.5Q205.67 -24.37 207.06 -25.64Q208.46 -26.91 210.22 -28.09Q211.99 -29.26 213.94 -30.1Q215.9 -30.94 217.76 -30.94Q220.42 -30.94 222.5 -29.98Q224.58 -29.02 225.94 -27.43Q227.31 -25.85 228.02 -23.84Q228.73 -21.82 228.73 -19.72Q228.73 -16.74 227.83 -14.23Q226.93 -11.72 225.63 -9.77Q224.33 -7.81 222.78 -6.39Q221.23 -4.96 219.93 -4.15ZM203.99 -7.63Q204.18 -6.94 204.99 -6.23Q205.79 -5.52 207.06 -4.93Q208.33 -4.34 209.98 -3.94Q211.62 -3.53 213.48 -3.53Q215.15 -3.53 216.67 -4.19Q218.19 -4.84 219.31 -6.23Q220.42 -7.63 221.07 -9.86Q221.73 -12.09 221.73 -15.25Q221.73 -17.48 221.11 -19.47Q220.49 -21.45 219.31 -22.94Q218.13 -24.43 216.52 -25.27Q214.91 -26.1 212.98 -26.1Q211.99 -26.1 210.78 -25.67Q209.57 -25.23 208.46 -24.49Q207.34 -23.75 206.38 -22.75Q205.42 -21.76 204.99 -20.65Q204.68 -19.9 204.46 -18.32Q204.24 -16.74 204.15 -14.85Q204.06 -12.96 204.02 -11.04Q203.99 -9.11 203.99 -7.63Z M236.65 -1.55Q236.15 -1.24 235.72 -0.53Q235.28 0.19 235.16 0.56Q235.1 0.68 234.82 0.77Q234.54 0.87 234.41 0.87Q233.86 0.87 233.86 0.31Q233.86 0.12 234.35 -0.68Q234.72 -1.3 235.53 -2.63Q236.34 -3.97 237.17 -5.36Q238.01 -6.76 238.72 -7.9Q239.44 -9.05 239.75 -9.42Q240.06 -9.73 240.49 -9.52Q240.92 -9.3 240.74 -8.99Q240.61 -8.87 240.55 -8.68Q240.49 -8.49 240.49 -8.06Q240.49 -7.5 241.45 -6.67Q242.41 -5.83 243.9 -5.05Q245.39 -4.28 247.19 -3.72Q248.98 -3.16 250.72 -3.16Q252.77 -3.16 253.97 -4.34Q255.18 -5.52 255.18 -7.44Q255.18 -9.61 253.82 -10.66Q252.46 -11.72 250.44 -12.28Q248.43 -12.83 246.04 -13.18Q243.65 -13.52 241.64 -14.2Q239.62 -14.88 238.26 -16.18Q236.89 -17.48 236.89 -19.96Q236.89 -21.89 238.23 -23.87Q239.56 -25.85 241.76 -27.4Q243.96 -28.95 246.81 -29.95Q249.67 -30.94 252.77 -30.94Q253.7 -30.94 254.94 -30.75Q256.18 -30.57 257.38 -30.29Q258.59 -30.01 259.62 -29.73Q260.64 -29.45 261.14 -29.26Q261.26 -29.26 261.07 -28.77Q260.89 -28.21 260.14 -27.06Q259.4 -25.92 258.5 -24.8Q257.6 -23.68 256.83 -22.82Q256.05 -21.95 255.74 -21.95Q255.68 -21.95 255.37 -21.95Q255.06 -21.95 254.94 -22.07Q255 -22.38 255 -22.88Q255 -25.05 253.04 -26.29Q251.09 -27.53 247.37 -27.53Q245.57 -27.53 244.43 -26.47Q243.28 -25.42 243.28 -23.93Q243.28 -21.51 244.64 -20.34Q246.01 -19.16 248.05 -18.57Q250.1 -17.98 252.46 -17.67Q254.81 -17.36 256.86 -16.71Q258.9 -16.06 260.27 -14.76Q261.63 -13.45 261.63 -10.85Q261.63 -9.67 261.14 -8.56Q260.64 -7.44 259.83 -6.45Q259.03 -5.46 258.04 -4.62Q257.04 -3.78 256.05 -3.16Q255.12 -2.54 253.94 -1.89Q252.77 -1.24 251.4 -0.68Q250.04 -0.12 248.61 0.22Q247.19 0.56 245.76 0.56Q245.08 0.56 243.59 0.28Q242.1 0 240.58 -0.37Q239.06 -0.74 237.89 -1.08Q236.71 -1.43 236.65 -1.55Z M299 -7.25Q298.31 -6.51 296.89 -5.21Q295.46 -3.91 293.45 -2.6Q291.43 -1.3 288.95 -0.37Q286.47 0.56 283.68 0.56Q281.14 0.56 278.72 -0.22Q276.3 -0.99 274.38 -2.57Q272.46 -4.15 271.31 -6.6Q270.17 -9.05 270.17 -12.46Q270.17 -15.25 270.54 -17.27Q270.91 -19.28 271.53 -20.8Q272.15 -22.32 272.92 -23.41Q273.7 -24.49 274.51 -25.36Q275.5 -26.47 276.92 -27.47Q278.35 -28.46 279.99 -29.26Q281.64 -30.07 283.46 -30.54Q285.29 -31 287.15 -31Q290.5 -31 292.39 -29.88Q294.28 -28.77 294.28 -26.78Q294.28 -25.54 293.54 -24.49Q294.16 -24.68 295.12 -25.11Q296.08 -25.54 297.07 -26.01Q298.07 -26.47 298.84 -26.85Q299.62 -27.22 299.86 -27.4Q299.99 -27.53 300.14 -27.5Q300.3 -27.47 300.3 -27.28Q300.3 -26.47 299.99 -25.95Q299.68 -25.42 299.24 -25.11Q298.25 -24.49 296.39 -23.56Q294.53 -22.63 292.27 -21.61Q290.01 -20.58 287.59 -19.56Q285.17 -18.54 283.03 -17.61Q280.89 -16.68 279.31 -15.96Q277.73 -15.25 277.17 -14.94Q277.17 -12.83 278.01 -11Q278.85 -9.18 280.33 -7.81Q281.82 -6.45 283.9 -5.67Q285.98 -4.9 288.46 -4.9Q290.69 -4.9 292.49 -5.36Q294.28 -5.83 295.52 -6.42Q296.76 -7.01 297.48 -7.47Q298.19 -7.94 298.25 -7.94Q298.5 -7.94 298.75 -7.72Q299 -7.5 299 -7.25ZM277.17 -16.74Q278.23 -17.11 279.56 -17.64Q280.89 -18.17 282.16 -18.79Q283.43 -19.41 284.49 -19.96Q285.54 -20.52 286.1 -20.96Q287.22 -21.76 287.22 -23.68Q287.22 -24.43 286.94 -25.23Q286.66 -26.04 286.1 -26.69Q285.54 -27.34 284.74 -27.74Q283.93 -28.15 282.94 -28.15Q282.07 -28.15 281.08 -27.56Q280.09 -26.97 279.22 -25.64Q278.35 -24.3 277.76 -22.1Q277.17 -19.9 277.17 -16.74Z M304.31 -1.55Q303.81 -1.24 303.38 -0.53Q302.94 0.19 302.82 0.56Q302.76 0.68 302.48 0.77Q302.2 0.87 302.07 0.87Q301.52 0.87 301.52 0.31Q301.52 0.12 302.01 -0.68Q302.38 -1.3 303.19 -2.63Q304 -3.97 304.83 -5.36Q305.67 -6.76 306.38 -7.9Q307.1 -9.05 307.41 -9.42Q307.72 -9.73 308.15 -9.52Q308.58 -9.3 308.4 -8.99Q308.27 -8.87 308.21 -8.68Q308.15 -8.49 308.15 -8.06Q308.15 -7.5 309.11 -6.67Q310.07 -5.83 311.56 -5.05Q313.05 -4.28 314.85 -3.72Q316.64 -3.16 318.38 -3.16Q320.43 -3.16 321.63 -4.34Q322.84 -5.52 322.84 -7.44Q322.84 -9.61 321.48 -10.66Q320.12 -11.72 318.1 -12.28Q316.09 -12.83 313.7 -13.18Q311.31 -13.52 309.3 -14.2Q307.28 -14.88 305.92 -16.18Q304.55 -17.48 304.55 -19.96Q304.55 -21.89 305.89 -23.87Q307.22 -25.85 309.42 -27.4Q311.62 -28.95 314.47 -29.95Q317.33 -30.94 320.43 -30.94Q321.36 -30.94 322.6 -30.75Q323.84 -30.57 325.04 -30.29Q326.25 -30.01 327.28 -29.73Q328.3 -29.45 328.8 -29.26Q328.92 -29.26 328.73 -28.77Q328.55 -28.21 327.8 -27.06Q327.06 -25.92 326.16 -24.8Q325.26 -23.68 324.49 -22.82Q323.71 -21.95 323.4 -21.95Q323.34 -21.95 323.03 -21.95Q322.72 -21.95 322.6 -22.07Q322.66 -22.38 322.66 -22.88Q322.66 -25.05 320.7 -26.29Q318.75 -27.53 315.03 -27.53Q313.23 -27.53 312.09 -26.47Q310.94 -25.42 310.94 -23.93Q310.94 -21.51 312.3 -20.34Q313.67 -19.16 315.71 -18.57Q317.76 -17.98 320.12 -17.67Q322.47 -17.36 324.52 -16.71Q326.56 -16.06 327.93 -14.76Q329.29 -13.45 329.29 -10.85Q329.29 -9.67 328.8 -8.56Q328.3 -7.44 327.49 -6.45Q326.69 -5.46 325.7 -4.62Q324.7 -3.78 323.71 -3.16Q322.78 -2.54 321.6 -1.89Q320.43 -1.24 319.06 -0.68Q317.7 -0.12 316.27 0.22Q314.85 0.56 313.42 0.56Q312.74 0.56 311.25 0.28Q309.76 0 308.24 -0.37Q306.72 -0.74 305.55 -1.08Q304.37 -1.43 304.31 -1.55Z M367.15 -8.62Q367.28 -8.74 367.37 -8.59Q367.46 -8.43 367.49 -8.15Q367.52 -7.87 367.46 -7.56Q367.4 -7.25 367.21 -7.07Q365.97 -5.89 364.11 -4.59Q362.25 -3.29 360.27 -2.17Q359.71 -1.86 358.72 -1.36Q357.73 -0.87 356.52 -0.4Q355.31 0.06 354.04 0.4Q352.77 0.74 351.65 0.74Q349.42 0.74 347.44 -0.12Q345.45 -0.99 343.96 -2.51Q342.48 -4.03 341.64 -6.14Q340.8 -8.25 340.8 -10.73Q340.8 -13.39 341.55 -15.75Q342.29 -18.1 343.25 -19.96Q344.21 -21.82 345.08 -23.09Q345.95 -24.37 346.26 -24.99Q345.08 -25.05 344.12 -25.08Q343.16 -25.11 342.29 -25.11Q340.31 -25.11 338.94 -25.08Q337.58 -25.05 336.52 -24.8Q336.03 -24.68 335.59 -24.3Q335.16 -23.93 334.85 -23.75Q334.73 -23.87 334.51 -24.09Q334.29 -24.3 334.29 -24.55Q334.29 -24.68 334.35 -24.74Q334.35 -24.8 335.16 -25.45Q335.97 -26.1 337.17 -27Q338.38 -27.9 339.84 -28.98Q341.3 -30.07 342.63 -31Q343.96 -31.93 344.92 -32.58Q345.89 -33.23 346.2 -33.36Q346.57 -33.48 346.94 -33.23Q347.31 -32.98 347.19 -32.86Q347 -32.74 346.63 -32.39Q346.26 -32.05 346.38 -31.81Q347.06 -31.25 348.74 -30.81Q350.41 -30.38 352.52 -30.1Q354.63 -29.82 356.86 -29.67Q359.09 -29.51 360.89 -29.51Q363.56 -29.51 365.17 -29.67Q366.78 -29.82 367.83 -30.07Q368.83 -30.32 369.14 -30.44Q369.2 -30.44 369.38 -30.26Q369.57 -30.07 369.57 -29.82Q369.57 -29.7 368.67 -29.2Q367.77 -28.71 366.84 -28.15Q366.28 -27.84 365.51 -27.34Q364.73 -26.85 363.83 -26.38Q362.94 -25.92 361.94 -25.54Q360.95 -25.17 360.02 -25.11Q359.09 -24.99 357.85 -24.92Q356.61 -24.86 355.25 -24.83Q353.88 -24.8 352.49 -24.77Q351.09 -24.74 349.92 -24.74Q349.73 -24.43 349.33 -23.71Q348.92 -23 348.55 -21.89Q348.18 -20.77 347.87 -19.34Q347.56 -17.92 347.56 -16.24Q347.56 -13.7 348.33 -11.56Q349.11 -9.42 350.5 -7.87Q351.9 -6.32 353.82 -5.46Q355.74 -4.59 357.98 -4.59Q359.28 -4.59 360.49 -4.9Q361.7 -5.21 362.78 -5.7Q363.87 -6.2 364.8 -6.79Q365.73 -7.38 366.41 -7.94Z" fill="#CE5A3C"/>
    <line x1="66" y1="155" x2="446" y2="155" stroke="#8A6C3D" stroke-width="1.2" opacity="0.65"/>
    <rect x="452.8" y="151.8" width="6.4" height="6.4" transform="rotate(45 456 155)" fill="#CE5A3C" opacity="0.8"/>
    <text x="66" y="178" font-family="Georgia, 'Times New Roman', serif" font-size="11.5" letter-spacing="3.8" fill="#7C5F34">A GOVERNED SELF FOR AI AGENTS</text>
  </g>

  <path d="M820,60 q21,-7 40,3 q-20,9 -40,-3 Z" fill="none" stroke="#A98950" stroke-width="1.1" opacity="0.45"/>
  <path d="M826,52 L829,70 M836,50 L839,70 M847,51 L849,69" stroke="#8A6C3D" stroke-width="1.2" opacity="0.5" stroke-linecap="round"/>
</svg>
